<?xml version="1.0" encoding="UTF-8"?>
<svg xmlns="http://www.w3.org/2000/svg" xmlns:xlink="http://www.w3.org/1999/xlink" width="px" height="px" viewBox="0 0 480 384" version="1.1">
<g id="surface1">
<path style=" stroke:none;fill-rule:nonzero;fill:red;fill-opacity:1;" d="M 240 264 L 192 264 C 178.726562 264 168 274.726562 168 288 L 168 354 C 168 370.574219 154.574219 384 138 384 L 96.074219 384 C 94.949219 384 93.824219 383.925781 92.699219 383.851562 C 91.800781 383.925781 90.898438 384 90 384 L 78 384 C 61.433594 384 48 370.574219 48 354 L 48 270 C 48 269.324219 48.023438 268.574219 48.066406 267.898438 L 48.066406 215.699219 L 24.039062 215.699219 C 10.515625 215.699219 0 205.125 0 191.625 C 0 184.875 2.253906 178.875 7.507812 173.625 L 199.800781 6.011719 C 205.050781 0.75 211.050781 0 216.300781 0 C 221.550781 0 227.550781 1.503906 232.125 5.261719 L 391.574219 145.425781 C 385.199219 144.523438 378.675781 144 372 144 C 303.148438 144 246.601562 196.726562 240.523438 264 Z M 264 276 C 264 216.375 312.375 168 372 168 C 431.625 168 480 216.375 480 276 C 480 335.625 431.625 384 372 384 C 312.375 384 264 335.625 264 276 Z M 416.476562 248.476562 C 421.199219 243.824219 421.199219 236.175781 416.476562 231.523438 C 411.824219 226.800781 404.175781 226.800781 399.523438 231.523438 L 372 259.050781 L 344.476562 231.523438 C 339.824219 226.800781 332.175781 226.800781 327.523438 231.523438 C 322.800781 236.175781 322.800781 243.824219 327.523438 248.476562 L 355.050781 276 L 327.523438 303.523438 C 322.800781 308.175781 322.800781 315.824219 327.523438 320.476562 C 332.175781 325.199219 339.824219 325.199219 344.476562 320.476562 L 372 292.949219 L 399.523438 320.476562 C 404.175781 325.199219 411.824219 325.199219 416.476562 320.476562 C 421.199219 315.824219 421.199219 308.175781 416.476562 303.523438 L 388.949219 276 Z M 416.476562 248.476562 "/>
</g>
</svg>
